<svg height="70" viewBox="0 0 70 70" width="70" xmlns="http://www.w3.org/2000/svg"><g fill="none" fill-rule="evenodd"><path d="m21.4048802 26.8563754.0268806-5.4699427-2.3333433-2.3333434 8.7841651-8.7841651 2.3196396 2.3201665 5.4699427.0263536 6.4798109 6.4798107-2.7217948 2.7212676-3.5930429 3.5930429-2.4377033-2.4377033c0-1.321367 0-2.0619017 0-3.3827416l.6878276-.6878277h-3.4618023l-.1222805 2.048198-7.5023284 7.5023284zm27.0076448 3.8091421-4.9265326-4.9265326-2.9906008 2.9906009-.6730698-.6730697-2.9906007 2.9906008.4843783.4849053-2.9906009 2.9906009.237182.2371819-2.5599838 2.5599839 4.4273964 4.4273964 2.5599837-2.559984.4058446.4058448 2.9906009-2.9906009.6045505.6040234 2.9906008-2.9906009-.5597495-.5597493z" fill="#ffdaaa" fill-rule="nonzero"/><path d="m32.0026967 37.3197889 2.5599838-2.560511-.237182-.2366548 2.9906009-2.9906009-.4843783-.4849053 2.9906007-2.9906008.6730698.6730697 2.9906008-2.9906009 2.687535 2.687535 1.5242893-1.5242893-.0268806-5.4894444 2.3280726-2.3280726-8.8157895-8.8157894-2.3143687 2.3148958-4.8601217.0237182 1.6634361.0079061 6.4798109 6.4798107-2.7217948 2.7212676-3.5930429 3.5930429-2.4377033-2.4377033v-3.3827416l.6878276-.6878277h-3.4623293l-.1217535 2.048198-9.5136314 9.5136313 3.0011422 3.0011423-.5613306.5613306 3.0016694 3.0016694.4369418-.4369419 2.932096 2.9320959.4063718-.4063717 2.6385173 2.6390444 1.7962579-1.7962579z" fill="#fff5cc"/><path d="m25.0906876 5.74243852 3.659454 3.65892677-10.749086 10.74855891-3.6589267-3.6589269z" fill="#fff"/><path d="m20.846712 1.4979357 4.2439756 4.24450282-11.217652 11.21765188-4.24397564-4.2439755z" fill="#d7fc7e"/><path d="m54.7252542 16.4909973-3.6589267 3.6589269-10.749086-10.74855891 3.658927-3.65945381z" fill="#ffb655"/><path d="m59.4383231 12.7161149-4.2439756 4.2439755-11.218179-11.21817892 4.2445026-4.24397578z" fill="#7c84e8"/><path d="m48.835236 49.4972372-3.9461806-3.9461806h-23.3761257l-4.8638111 3.0359289h-5.812539v14.1044198h5.812539l19.622853 4.684607 31.4318788-13.4492706-1.7883518-3.6188694-4.4200175-1.6328659-12.6602451 5.4135461z" fill="#ffdaaa"/><path d="m61.4259079 48.709266-1.120026-2.2664053-4.4200173-1.632866-8.2223075 3.5160906 1.1716789 1.1711519v4.5913153z" fill="#ffbb85"/><path d="m1.01197631 48.5869855h9.82460329v19.5337781h-9.82460329z" fill="#787680"/><path d="m25.4786119 21.3864327-2.3333434-2.3333434 6.7607397-6.7607396-2.0234256-2.0234255-8.7841651 8.7841651 2.3333433 2.3333434-.0268806 5.4699427 1.595971 1.5954439 2.4550966-2.4556238z" fill="#ffbb85"/><path d="m36.0495477 37.3197889 2.5599838-2.560511-.2371819-.2366548 2.991128-2.9906009-.4849053-.4849053 2.9906007-2.9906008.6730696.6730697.9671753-.9671753-2.0234255-2.0234256-2.9906008 2.9906009-.6730698-.6730697-2.9906007 2.9906008.4843783.4849053-2.9906009 2.9906009.237182.2366548-2.5599838 2.560511 4.4273964 4.4273964 2.0234254-2.0234256z" fill="#ffbb85"/><path d="m33.846918 39.5224185-2.9320958-2.9320959-.436942.4369419-3.0016693-3.0016694.5613307-.5613306-3.0011423-3.0011423 8.3630355-8.3630355v-2.5109661l.6878276-.6878277h-3.4623293l-.1217535 2.048198-9.5136314 9.5136313 3.0011422 3.0011423-.5613306.5613306 3.0016694 3.0016694.4369418-.4369419 2.932096 2.9320959.4063718-.4063717 2.6385173 2.6390444 1.7962579-1.7962579-.6150918-.615619z" fill="#ffc477"/><path d="m42.1519758 19.095255-4.2914121 4.290885 2.0234256 2.0234255 3.5930429-3.5930429 2.7217946-2.7212676-6.4798107-6.4798107h-4.0468512z" fill="#ffc477"/><path d="m18.3889799 16.4915243 8.7256603-8.7256602-2.0234255-2.02342558-10.7490858 10.74908578 3.6589267 3.6589269 2.0234256-2.0234256z" fill="#d8d7da"/><path d="m13.675384 12.7166419 9.1947536-9.19475358-2.0234256-2.02342545-11.21817907 11.21817903 4.24450267 4.2439757 2.0234256-2.0234256z" fill="#55e072"/><path d="m44.3635655 9.40136529 1.6355014-1.63550119-2.0234256-2.02342558-3.6589268 3.65892677 10.7490859 10.74908591 2.0234255-2.0234256z" fill="#ff7956"/><path d="m48.0230195 5.74243852 2.2205502-2.2205502-2.0234256-2.02342545-4.2445028 4.24397565 11.2181792 11.21817908 2.0234254-2.0234256z" fill="#515be0"/><g fill="#ffbb85" transform="translate(10.794414 45.471469)"><path d="m14.7653669.07958775h-4.0468512l-4.86381109 3.03592893h4.04685102z"/><path d="m42.087673 8.61708365 10.7843996-4.61187113-2.1710054-.80167495-8.6133942 3.68317198z"/><path d="m9.90155563 17.2199365h-4.04685102l19.62285309 4.684607 1.4489182-.6203625z"/><path d="m.04216568 3.11551668h4.04685116v14.10389282h-4.04685116z"/></g><path d="m1.01197631 48.5869855h4.04685116v19.5337781h-4.04685116z" fill="#57565c"/><g fill="#000"><g fill-rule="nonzero"><path d="m43.4859924 24.3079872-2.9906008 2.9906008-.6730698-.6730696-4.4215985 4.4215985.4849053.4843783-2.9906007 2.9911279.2371818.2366548-3.3321427 3.3321429-1.5010982-1.5016253 5.9205884-5.9211155-1.4304707-1.4304708-6.3580573 6.3580575-1.5706716-1.5706716 6.3580575-6.3580574-1.4309978-1.4309978-5.7967269 5.7972539-1.5701445-1.5711986 8.0689299-8.0689298-1.4304707-1.4304708-9.4999276 9.4999276 3.0011423 3.0011423-.5613307.5613306 4.4321401 4.43214.4369418-.4369418 2.932096 2.9320959.4063718-.4058447 1.923282 1.923282 1.4304706-1.4304706-1.923282-1.9238091.3657873-.3652603 4.4273964 4.4273964 2.5599837-2.5605108.4063717.4063716 2.9906009-2.9906007.6040234.6040233 4.4215985-4.4215986-.5597494-.5592223 2.9906009-2.9906007zm-5.9263863 14.8792141-1.129513 1.1289862-2.9969258-2.9963986 1.1295132-1.1295132zm1.8363153-1.025153-3.6394251-3.6394252 1.5596031-1.5601301 3.6399522 3.6399522zm.4264004-8.6750615 4.728354 4.7288809-1.559603 1.5596031-4.7283539-4.7283539zm3.6636706-2.3170041 3.4960618 3.4955348-1.5596029 1.5601301-3.496062-3.4960618z"/><path d="m14.3421289 17.9219951 3.6589267 3.6594538 1.0973619-1.0978888 1.3197858 1.3197858v4.4305587h2.027115v-5.2649122l-1.915903-1.9159031 7.3531673-7.3531673 1.8985098 1.8985097 5.4699427.0268806 5.4699429 5.4699427-1.9812599 1.9812599-1.4468099-1.4462828-1.4304707 1.4304708 1.4462828 1.4462828-1.4715822 1.4715822-1.4262541-1.4257272v-2.5452258l2.3143688-2.3138417-1.4309978-1.4304706-1.6260139 1.626014h-2.6242866l-1.5279788-1.5285059-1.4304706 1.4309978 2.1204065 2.1209337h2.1815469v3.4776143l3.4496796 3.4496798 7.7453083-7.7453083-7.4891517-7.4891517-5.4699429-.0263537-1.3102984-1.3102984.8675588-.86808594-5.0893975-5.08939753-4.2445027-4.24397564-12.64864982 12.64917681 5.67444642 5.6749734zm12.9770149-8.52062981-9.3180882 9.31808811-2.227929-2.2279291 9.3180881-9.31861517zm-6.4724318-6.47243181 2.8135049 2.81350504-9.7871813 9.78718128-2.8135049-2.8129779z"/><path d="m0 69.1327399h11.848556v-21.5572037h-11.848556zm2.02342558-19.5337781h7.80170479v17.5098255h-7.80170479z"/></g><path d="m66.6444378 49.4982912-5.1763642-1.9122135-11.6208613 4.9697523v-3.4776143l-4.5391355-4.5386084h-24.0850362l-4.863811 3.0359289h-2.8245735v2.0234256h3.4043515l4.8638112-3.0359289h22.6672151l3.3537528 3.3532256v3.1608449h-16.9753755v2.0234254h18.1939637l12.4805141-5.3371208 3.6641975 1.3535183 1.1363649 2.2996106-30.1421358 12.8974273-19.4130789-4.6345352h-3.2335806v2.0234256h2.9958715l19.8315732 4.7346786 32.7221486-14.0011139z"/><path d="m11.8880863 30.4578516h4.0136455v2.0234254h-4.0136455z"/><path d="m13.6390161 39.0164303 3.4760332-2.0065593 1.0114493 1.7519841-3.4755062 2.0070864z"/><path d="m13.6390161 23.9216441 1.0114493-1.752511 3.4760332 2.0070863-1.0114493 1.752511z"/><path d="m53.1651241 30.4578516h4.0136457v2.0234254h-4.0136457z"/><path d="m50.9387762 38.7639633 1.0114493-1.752511 3.4760332 2.0070863-1.0119763 1.752511z"/><path d="m50.9382492 24.1756924 3.4760332-2.0070864 1.0119763 1.752511-3.4760332 2.0065594z"/><path d="m39.5840859 13.2990553 1.5991333-1.5991333 7.3847918 7.3847916-1.9111595 1.9111595v5.2385586h2.0276421v-4.4047324l1.3150422-1.3150421 1.0662646 1.0667917 3.6589268-3.6594538.4696203.4696202 5.6744463-5.6749734-12.6486497-12.64917681-4.2445028 4.24397564-5.0893975 5.08992456.8670318.86703171-1.5996605 1.5996605zm8.6360582-10.37012182 9.7871813 9.78770842-2.8129779 2.8129779-9.7877084-9.78718128zm-4.2445028 4.24397565 9.3186152 9.31861517-2.2284561 2.2279291-9.3180881-9.31808811z" fill-rule="nonzero"/><path d="m50.7342727 48.1131487 5.1789996-2.2147524 3.7991278 1.4035901.7010043-1.8979827-4.5549474-1.6829376-5.9200615 2.5315219z"/></g><g fill="#fff" fill-rule="nonzero"><path d="m54.8359392 13.7892313-2.9194462-2.9194461 1.4309977-1.43047079 2.9189191 2.91891919zm-3.8729176-3.87344472-1.4309978-1.43047061 1.4309978-1.43099778 1.4304706 1.43099778zm-2.3849963-2.38446917-1.4304707-1.43099765 1.4304707-1.43047075 1.4309977 1.43047075z"/><path d="m36.3684257 64.7670108-.7958772-1.8605605 11.2946043-4.8327139.7958773 1.8600335zm12.5353294-5.3640014-.7958772-1.8600335 1.8600336-.7964044.7958772 1.8605606zm3.1002316-1.3266377-.7958772-1.8600336 1.8605607-.7964042.7958771 1.8605605z"/><path d="m8.47582863 65.480665h-2.02342558v-7.5086534h2.02342558zm0-8.8579552h-2.02342558v-2.0234254h2.02342558zm0-3.3722001h-2.02342558v-2.0234256h2.02342558z"/></g></g></svg>