<svg height="64" viewBox="0 0 48 64" width="48" xmlns="http://www.w3.org/2000/svg"><g fill="none" fill-rule="evenodd"><path d="m25.4742055 5.8352244 6.5185103-.65178829c1.9032871-.19036635 3.82477.0599836 5.6156192.7315991l1.1734448.43996337c2.3662149.88733058 4.946388 1.03427784 7.3980606.42139105v7.52932177c-2.4516726.6128868-5.0318457.4659396-7.3980606-.421391l-1.1734448-.4399634c-1.7909747-.6716155-3.7124576-.9219654-5.6156192-.7315991l-6.5185103.6517883" fill="#eb4f27"/><path d="m38.7817798 6.35499858-1.1734448-.43996337c-1.7909747-.6716155-3.7124576-.92196545-5.6156192-.7315991l-6.5185103.65178829v3.67493649l6.5185103-.65178829c1.9032871-.19036636 3.82477.05998359 5.6156192.7315991l1.1734448.4399634c2.3662149.8873305 4.946388 1.0342778 7.3980606.421391v-3.67493647c-2.4516726.61288679-5.0318457.46593953-7.3980606-.42139105z" fill="#ff6442"/><path d="m28.2977011 36.7054438h6.5881566v26.3526263h-18.8233045" fill="#fef0bd"/><path d="m1.239201 59.293409h14.823352v3.52937h-14.823352z" fill="#babaf2"/><path d="m16.297845 59.293409h18.588013v3.294078h-18.588013z" fill="#fff"/><path d="m3.827405 55.528748h14.823352v3.52937h-14.823352z" fill="#9797f3"/><path d="m5.474444 51.764087h14.823352v3.52937h-14.823352z" fill="#babaf2"/><path d="m8.062649 47.999427h14.823352v3.52937h-14.823352z" fill="#9797f3"/><path d="m9.709688 44.234766h14.823352v3.52937h-14.823352z" fill="#babaf2"/><path d="m13.239058 36.705444h14.823352v3.52937h-14.823352z" fill="#babaf2"/><path d="m12.297892 40.470105h14.823352v3.52937h-14.823352z" fill="#9797f3"/><g fill="#000"><path d="m45.9515765 5.86333387c-2.2769924.56921673-4.6419524.43444187-6.839385-.38951692l-1.1734448-.43996337c-1.9155849-.71842279-4.0044698-.99035679-6.0396455-.78693961l-5.4837305.5483856v-1.03063867h-1.8823305v31.9996177h-12.2351479v3.7646609h-1.8823305v3.7646609h-1.88233042v3.7646609h-1.88233045v3.7646609h-1.88233045v3.7646609h-1.88233045v3.7646609h-2.82349568v5.6469914h35.76427855v-28.2349568h-9.4116522v-21.5479151l5.6709597-.5670834c1.7496889-.1749313 3.5450557.0588542 5.1915929.676384l1.1734448.4399634c1.5185387.5694677 3.1057197.8559584 4.6995517.8559584 1.0893673 0 2.1818719-.1338964 3.2573101-.4026932l.7129012-.178194v-9.46975349zm-33.6536842 35.54793603h13.1763132v1.8823305h-13.1763132zm-1.8823305 3.764661h13.1763132v1.8823304h-13.1763132zm-1.88233042 3.7646609h13.17631312v1.8823304h-13.17631312zm-1.88233045 3.7646609h13.17631317v1.8823304h-13.17631317zm8.47048707 9.4116522h-13.1763132v-1.8823304h13.1763132zm-10.35281752-3.7646609v-1.8823304h13.17631312v1.8823304zm29.17612202-20.705635v24.4702959h-16.9409741v-1.8823304h2.8234957v-3.7646609h1.8823304v-3.7646609h1.8823305v-3.7646609h1.8823305v-3.7646609h1.8823304v-3.764661h1.8823305v-3.7646609zm-6.5881566 1.8823305h-13.1763132v-1.8823305h13.1763132zm17.8821393-25.9815563c-2.0541245.3789759-4.1576915.1940056-6.1264837-.5442444l-1.1734448-.4399634c-1.9155849-.7184228-4.0044698-.9903568-6.0396455-.7869396l-5.4837305.5483856v-5.63757972l5.6709597-.56708343c1.7496889-.17493124 3.5450557.0588542 5.1915929.67638408l1.1734448.43996337c2.1821229.81831179 4.5062991 1.0524737 6.7874326.69144272v5.61963478z" fill-rule="nonzero"/><path d="m24.53304 0h1.88233v1.88233h-1.88233z"/><path d="m30.180032 54.587583h1.88233v1.88233h-1.88233z"/><path d="m30.180032 50.822922h1.88233v1.88233h-1.88233z"/><path d="m30.180032 58.352244h1.88233v1.88233h-1.88233z"/></g></g></svg>