<svg height="58" viewBox="0 0 58 58" width="58" xmlns="http://www.w3.org/2000/svg"><g fill="none" fill-rule="evenodd"><path d="m26.920462 20.341437h3.418327v3.418327h-3.418327z" fill="#fe3934"/><path d="m30.3387888 16.92311h-3.4183266v-12.81872514l1.7091633-2.56374502 1.7091633 2.56374502z" fill="#ff836d"/><path d="m38.884606 22.905182h3.418327v3.418327h-3.418327z" fill="#9797f3"/><path d="m14.956319 22.905182h3.418327v3.418327h-3.418327z" fill="#9797f3"/><path d="m38.8846056 19.486855h3.4183267v-5.9820717h11.9641434l1.7091633-1.7091634-1.7091633-1.7091633h-15.3824701z" fill="#babaf2"/><path d="m18.3746454 19.486855h-3.4183267v-5.9820717h-11.9641434l-1.70916335-1.7091634 1.70916335-1.7091633h15.3824701z" fill="#babaf2"/><circle cx="28.629626" cy="42.56056" fill="#ffbf28" r="14.527888"/><circle cx="28.629626" cy="42.56056" fill="#fef0bd" r="8.759462"/><g fill-rule="nonzero"><path d="m28.6296255 57.9430303c-8.481894 0-15.3824701-6.9005761-15.3824701-15.3824701 0-8.4818941 6.9005761-15.3824702 15.3824701-15.3824702s15.3824701 6.9005761 15.3824701 15.3824702c0 8.481894-6.9004621 15.3824701-15.3824701 15.3824701zm0-29.0557769c-7.5394614 0-13.6733068 6.1338454-13.6733068 13.6733068 0 7.5394613 6.1338454 13.6733067 13.6733068 13.6733067s13.6733068-6.1338454 13.6733068-13.6733067c0-7.5394614-6.1338454-13.6733068-13.6733068-13.6733068z" fill="#000"/><path d="m28.6356645 54.5247036h-.006039c-.6240725 0-1.2509936-.0485403-1.8635578-.1443673l.2641227-1.6886534c.5252829.0821538 1.0635554.1238573 1.5994351.1238573zm1.8707363-.1464183-.2661737-1.6881977c.5292709-.0835211 1.0553514-.2096573 1.5635426-.3748764l.5285873 1.6254143c-.5935355.1929076-1.2079227.3402374-1.8259562.4376598zm-5.5666311-.4336718c-.594447-.1925657-1.1785251-.4343553-1.7359402-.7184183l.776302-1.5227506c.4773123.2433849.9775275.4503076 1.4865163.6151849zm9.1265905-.7238876-.7775554-1.521953c.475945-.243157.9369633-.5264223 1.3701793-.8419339l1.0061275 1.3816877c-.5053427.3679259-1.0432734.6983641-1.5987514.9821992zm-12.4633331-.9758183c-.5052287-.3671283-.9852757-.7770996-1.4272653-1.2185196l1.2080366-1.209176c.3789785.3785227.7907729.7301545 1.2241028 1.0449824zm15.4880964-1.2259259-1.2088343-1.2082646c.3790925-.3793203.7309522-.7911147 1.0458941-1.2238749l1.3820294 1.0054439c-.3670143.5047729-.7772135.9847059-1.2190892 1.4266956zm-18.1354765-1.4176941c-.3682677-.5052286-.6991617-1.0429314-.9831107-1.5981816l1.5216111-.778353c.2433849.4757171.5268781.9365076.8427315 1.3697235zm20.336651-1.6088924-1.5221809-.7770996c.2437267-.4773123.4508773-.9774135.6159825-1.4860605l1.6257562.5275617c-.1929076.5942191-.4349251 1.1781833-.7195578 1.7355984zm-22.0405729-1.7230645c-.1934773-.5936494-.341149-1.2080367-.4389131-1.8257283l1.6881976-.2670853c.083635.5290431.2101131 1.0550096.3756741 1.5633148zm23.1967649-1.8388319-1.6884255-.2648064c.0827235-.5273338.124655-1.0673155.124655-1.6050183v-.0239283h1.7091634v.0239283c-.000114.6260096-.0488821 1.2550956-.1453929 1.8698247zm-22.0738446-1.8578606h-1.7091633v-.012078c0-.6220216.0483123-1.2468917.1434557-1.8571769l1.6886534.2633251c-.081584.5234597-.1229458 1.0596812-.1229458 1.5939657zm20.3817729-1.6388597c-.0843187-.5292709-.2112526-1.0551235-.3774972-1.5630869l1.6246167-.531094c.1939331.5931936.3421746 1.207353.4406224 1.8252725zm-19.8865713-1.5311825-1.626098-.5258526c.1923379-.5947888.4336717-1.1789809.7173928-1.736282l1.5230925.7753904c-.2429291.4771984-.4496239.9774135-.6143873 1.4867442zm18.890243-1.5159139c-.2441824-.4758311-.5282454-.9365076-.8440988-1.3690399l1.3799785-1.0082924c.3686096.504545.6999594 1.041906.9848199 1.5970422zm-17.4352892-1.3435164-1.3831689-1.0040765c.3666725-.5052286.776302-.9856175 1.2176079-1.427949l1.2099737 1.2071251c-.3785227.3794343-.7299266.7915706-1.0444127 1.2249004zm15.5431315-1.2470055c-.3796622-.3782949-.7919124-.729471-1.2253562-1.0438431l1.0032789-1.3837386c.5053426.3663307.9859593.7758462 1.4285187 1.2168103zm-13.2767809-1.0251562-1.0074948-1.3806622c.5048868-.3683816 1.0422478-.6993896 1.597498-.9839083l.7793785 1.5211553c-.4758311.2437267-.9365076.5275618-1.3693817.8434152zm10.6785108-.8583418c-.4777682-.2429291-.9782112-.4492821-1.4872-.6135897l.524941-1.6265538c.594447.1918821 1.178753.4328741 1.7366239.7164813zm-7.8246638-.6032208-.5300685-1.6248446c.5935354-.1937052 1.2076948-.3416048 1.8255004-.4397107l.2679968 1.6879697c-.5292709.0840908-1.0551235.2107968-1.5634287.3765856zm4.7728956-.3817131c-.5212948-.0810144-1.0556932-.1221482-1.5881546-.1221482h-.0180031v-1.7091634h.0180031c.6200845 0 1.2427897.0478566 1.8507961.1424303z" fill="#fff"/><g fill="#000"><path d="m31.1933705 24.614345h-5.12749v-5.12749h5.12749zm-3.4183267-1.7091633h1.7091634v-1.7091634h-1.7091634z"/><path d="m31.1933705 17.7776916h-5.12749v-13.93207407l2.563745-3.84561753 2.563745 3.84561753zm-3.4183267-1.7091633h1.7091634v-11.70537611l-.8545817-1.28187251-.8545817 1.28187251z"/><path d="m43.1575139 27.17809h-5.12749v-5.12749h5.12749zm-3.4183266-1.7091633h1.7091633v-1.7091634h-1.7091633z"/><path d="m43.1575139 20.3414367h-5.12749v-11.1095618h16.5909626l2.563745 2.563745-2.563745 2.563745h-11.4634726zm-3.4183266-1.7091634h1.7091633v-5.9820717h12.4648143l.8545817-.8545817-.8545817-.8545817h-14.1739776z"/><path d="m19.2292271 27.17809h-5.12749v-5.12749h5.12749zm-3.4183267-1.7091633h1.7091633v-1.7091634h-1.7091633z"/><path d="m19.2292271 20.3414367h-5.12749v-5.9820718h-11.46347256l-2.56374502-2.563745 2.56374502-2.563745h16.59096256zm-3.4183267-1.7091634h1.7091633v-7.6912351h-14.1738637l-.85458167.8545817.85458167.8545817h12.4647004z"/></g></g><path d="m27.917702 46.7823076v-1.0824701c-.7635402-.0341833-1.5041777-.2393969-1.9372797-.4899602l.3420606-1.3332614c.4784518.2620717 1.1508366.5013546 1.8914741.5013546.649596 0 1.0940924-.2506773 1.0940924-.7064542 0-.432988-.3647355-.7065681-1.2080367-.9914287-1.2193171-.4101992-2.050996-.9800342-2.050996-2.0852932 0-1.0028231.7063403-1.7890382 1.9256574-2.0283211v-1.0824701h1.1167673v1.0027092c.7633124.0341832 1.2762893.1937051 1.6521913.3760159l-.3304383 1.2876837c-.296255-.1253387-.8202844-.3874104-1.6407968-.3874104-.7406374 0-.9799203.3190438-.9799203.6382016 0 .3760159.3988048.6152988 1.3673307.9800343 1.3559362.4785657 1.9029824 1.1052589 1.9029824 2.1308709 0 1.0141036-.7179625 1.8801936-2.0283211 2.108082v1.1623451h-1.1167673z" fill="#000"/></g></svg>