<svg height="69" viewBox="0 0 69 69" width="69" xmlns="http://www.w3.org/2000/svg"><g fill="none" fill-rule="evenodd"><path d="m45.2709525 1.00317651c-.6886388.68863894-1.0747573 1.0747573-1.7633961 1.76339625v8.69158384l-3.6689092 3.6699541h-14.3177323l-2.3585097 2.3585099v15.331881l1.7633961 1.7633962h3.1208195v18.8973375h4.5383287l1.6531513-1.6526288h.0073149l1.6531513 1.6526288h4.5383287v-32.0426072l7.9548762-7.9553988v-12.47805279z" fill="#787680"/><path d="m37.6755478 26.9974654h-1.5178269l-5.1762863-11.8693547h11.8698771z" fill="#57565c"/><path d="m39.9708366 6.73225483v4.79800517c-1.4049696 1.4049696-2.1928812 2.1928811-3.5978507 3.5978507h-4.2624553c-1.4049696-1.4049696-2.1928811-2.1928811-3.5978507-3.5978507v-4.79800517c0-3.16418591 2.5648924-5.72907832 5.7290783-5.72907832 3.164186 0 5.7290784 2.56489241 5.7290784 5.72907832z" fill="#ffdaaa"/><path d="m31.0979494 15.3156839h-2.6751374l5.1762862 11.8698771h1.5173045l.5789166-1.3271189z" fill="#d8d7da"/><path d="m35.0004105 26.9974654h-1.5178269l-5.1762864-11.8693547h11.8698772z" fill="#fff"/><path d="m33.4825836 26.9974654h1.5178269l1.4091495-3.2321094-.8286656-8.6372453h-2.6793172l-.8286657 8.6372453z" fill="#ff7956"/><path d="m62.1295428 20.7333595v4.7980052c-1.4049696 1.4049695-2.1923587 2.1928812-3.5973284 3.5978508h-4.2629776c-1.4049697-1.4049696-2.1923586-2.1928813-3.5973282-3.5978508v-4.7980052c0-3.1641859 2.5648924-5.7290784 5.7285557-5.7290784 3.1641859 0 5.7290785 2.5648925 5.7290785 5.7290784z" fill="#ffdaaa"/><path d="m45.3211113 31.4877252v15.331881c.6886389.6886389 1.0747574 1.0747573 1.7633962 1.7633962h3.1208194v18.8973376h4.5388513l1.6526288-1.6526289h.0078372l1.6526289 1.6526289h4.5388512v-18.8973376h3.1208194c.688639-.6886389 1.0747573-1.0747573 1.7633963-1.7633962v-15.331881c-.921146-.9211458-1.4373639-1.4373639-2.3590323-2.3585097h-17.4411641c-.921146.9211458-1.4378863 1.4373639-2.3590323 2.3585097z" fill="#ffe477"/><path d="m17.8116079 20.7333595v4.7980052c-1.4049696 1.4049695-2.1928811 2.1928812-3.5978507 3.5978508h-4.26245514c-1.4049697-1.4049696-2.1923588-2.1928813-3.59732837-3.5978508v-4.7980052c0-3.1641859 2.56489254-5.7290784 5.72855591-5.7290784 3.1641859 0 5.7290783 2.5648925 5.7290783 5.7290784z" fill="#ffdaaa"/><path d="m1.00317651 31.4877252v15.331881l1.76339625 1.7633962h3.12081939v18.8973376h4.53885125l1.6526288-1.6526289h.0078373l1.6526288 1.6526289h4.5388513v-18.8973376h3.1208194c.6886388-.6886389 1.0747573-1.0747573 1.7633962-1.7633962v-15.331881c-.921146-.9211458-1.4378863-1.4373639-2.3590323-2.3585097h-17.44116409c-.92166842.9211458-1.43788633 1.4373639-2.3590323 2.3585097z" fill="#7c84e8"/><path d="m13.9791602 42.0660126h1.5564911l1.4457236-1.7900432-.8500877-11.0678582h-2.747763l-.8500877 11.0678582z" fill="#515be0"/><path d="m58.297095 42.0660126h1.5564911l1.4457235-1.7900432-.849565-11.0678582h-2.7482857l-.8500876 11.0678582z" fill="#ffb655"/><path d="m11.3040229 42.0660126h1.556491l1.4457236-1.7900432-.8500876-11.0678582h-2.7477631l-.85008763 11.0678582z" fill="#ffb655"/><path d="m55.6219576 42.0660126h1.5564911l1.4457236-1.7900432-.8495651-11.0678582h-2.7482856l-.8500877 11.0678582z" fill="#d7fc7e"/><path d="m25.8140306 53.4792353h16.8544103v14.0011047h-16.8544103z" fill="#c6c5ca"/><path d="m28.9379849 34.5818978-1.7628737-1.7633962v-15.331881l2.3585097-2.3585099h-4.012706l-2.3585097 2.3585099v15.331881l1.7628737 1.7633962h3.1213419v18.8973375h4.0127061v-18.8973375z" fill="#57565c"/><path d="m47.5207849 11.4581566v-8.69158384c.3396169-.34013957.6060858-.60608581.870987-.8715096v-.89188665h-3.1202968c-.688639.68863894-1.0747575 1.0747573-1.7633963 1.76339625v8.69158384l-3.6694316 3.6699541h4.012706z" fill="#57565c"/><path d="m32.525386 11.53026v-4.79800517c0-2.4583049 1.5481312-4.55452582 3.7227253-5.36803924-.624373-.23355206-1.3004721-.36103908-2.0063531-.36103908-3.1641859 0-5.7290783 2.56489241-5.7290783 5.72907832v4.79800517l3.5978507 3.5978507h4.0127061c-1.4049696-1.4049696-2.1928812-2.1928811-3.5978507-3.5978507z" fill="#ffbb85"/><path d="m54.6846146 25.5313647v-4.7980052c0-2.4583049 1.5481312-4.5545259 3.7227253-5.3675168-.6243729-.2335521-1.3004721-.3615616-2.006353-.3615616-3.1641859 0-5.7290783 2.5648925-5.7290783 5.7290784v4.7980052c1.4049696 1.4049695 2.1928811 2.1928812 3.5978507 3.5978508h4.012706c-1.4049695-1.4049696-2.1928811-2.1928813-3.5978507-3.5978508z" fill="#ffbb85"/><path d="m51.0972136 48.5830024c-.6886388-.6886389-1.0747573-1.0747573-1.7633963-1.7633962v-15.331881l2.3590323-2.3585097h-4.012706l-2.3590323 2.3585097v15.331881c.6886389.6886389 1.0747574 1.0747573 1.7633962 1.7633962h3.1208194v18.8973376h4.0127061v-18.8973376z" fill="#ffb655"/><path d="m10.3666797 25.5313647v-4.7980052c0-2.4583049 1.5481313-4.5545259 3.7222029-5.3675168-.6243729-.2335521-1.300472-.3615616-2.006353-.3615616-3.16366337 0-5.72855591 2.5648925-5.72855591 5.7290784v4.7980052c1.40496957 1.4049695 2.19235867 2.1928812 3.59732837 3.5978508h4.01270604c-1.4049697-1.4049696-2.1923588-2.1928813-3.5973284-3.5978508z" fill="#ffbb85"/><path d="m6.7792788 48.5830024c-.68863894-.6886389-1.0747573-1.0747573-1.76339625-1.7633962v-15.331881l2.3590323-2.3585097h-4.01270604l-2.3590323 2.3585097v15.331881l1.76339625 1.7633962h3.12081939v18.8973376h4.01270604v-18.8973376z" fill="#515be0"/><path d="m25.8140306 53.4792353h4.0127061v14.0011047h-4.0127061z" fill="#898890"/><g fill="#000"><path d="m21.1257478 6.75472184h3.5419446v2.00635302h-3.5419446z"/><path d="m21.9465761 3.66838657 1.0052665-1.73674933 3.0654357 1.77489104-1.0052664 1.73622675z"/><path d="m21.9470986 11.8458426 3.0654357-1.7743684 1.0052665 1.7367493-3.0654358 1.7743685z"/><g fill-rule="nonzero"><path d="m65.5372079 28.126039h-4.5832626l2.178774-2.1792965v-5.213383c0-3.7122756-3.0199793-6.7322549-6.7317324-6.7322549-3.7122757 0-6.7322548 3.0199793-6.7322548 6.7322549v5.213383l2.1787739 2.1792965h-4.5827402l-2.9463084 2.9463085v16.1626365l2.3506723 2.351195h2.5330207v18.8973375h5.957928l1.2409085-1.2409085 1.2409084 1.2409085h5.9574055v-18.8973375h2.5335432l2.3506725-2.3506725v-16.163159zm-7.9433814 11.8296455-.894499 1.1071516h-.5982486l-.8939765-1.1071516.7482025-9.7443968h.8897966zm-5.9187414-14.8396975v-4.3826275c0-2.6056464 2.1197328-4.7259018 4.7253792-4.7259018 2.6061691 0 4.725902 2.1202554 4.725902 4.7259018v4.3826275l-3.010052 3.010052h-3.4311772zm14.8020784 21.2882415-1.1755974 1.1755974h-1.7022653v-12.1420932h-2.006353v31.0394308h-3.1202969l-1.0648301-1.0653526v-16.3146805h-2.0141903v16.3152029l-1.0648301 1.0648302h-3.120297v-31.0394308h-2.006353v12.1420932h-1.7022651l-1.1755975-1.1755974v-14.500603l1.7712336-1.7712335h5.8534305l-.8035863 10.4638624 1.9974708 2.4729347h2.515256l1.9969483-2.4729347-.8035862-10.4638624h5.8544754l1.7712336 1.7712335z"/><path d="m22.1592287 46.4042285-1.1755976 1.1755974h-1.702265v-12.1420932h-2.0063531v31.0394308h-3.1202969l-1.0648301-1.0653526v-16.3146805h-2.0141903v16.3152029l-1.0648301 1.0648302h-3.12029694v-31.0394308h-2.00635302v12.1420932h-1.70226521l-1.17559741-1.1755974v-14.500603l1.7712336-1.7712335h5.85343034l-.80358612 10.4638624 1.99694816 2.4729347h2.5157786l1.9969482-2.4729347-.8035861-10.4638624h5.9537481v-2.006353h-3.8512573l2.1787739-2.1787741v-5.2139054c0-3.7122756-3.0199792-6.7322549-6.7317323-6.7322549-3.71227563 0-6.73225492 3.0199793-6.73225492 6.7322549v5.2139054l2.17877405 2.1787741h-4.58326268l-2.94630855 2.9463085v16.163159l2.35067249 2.3506725h2.53354315v18.8973375h5.95740556l1.2409084-1.2409085 1.2414309 1.2409085h5.9574056v-18.8973375h2.5330207l2.3511949-2.3506725v-10.6336711h-2.006353zm-9.7778361-5.3413924h-.5982485l-.8944991-1.1071516.748725-9.7443968h.8897967l.7482025 9.7443968zm-5.0242424-15.9468491v-4.3826275c0-2.6056464 2.11973284-4.7259018 4.7253794-4.7259018 2.6056465 0 4.7259018 2.1202554 4.7259018 4.7259018v4.3826275l-3.010052 3.010052h-3.4316997z"/><path d="m24.8108541 68.4835165h18.8607633v-16.0074577h-18.8607633zm2.0063531-14.0011047h14.8480572v11.9947517h-14.8480572z"/><path d="m27.0434443 50.804098h2.006353v-29.3674699h-2.006353v12.1420932h-1.7022652l-1.17612-1.1755975v-14.5011254l1.7712336-1.7707112h1.7132374l5.1757638 11.8698772h2.8318837l5.6240583-12.8970881 3.2300194-3.2300193v-8.69210657l1.1755974-1.17559741h1.7022652v11.05949858l-7.9548763 7.9548762v29.7833702h2.006353v-28.9520921l7.9548764-7.9548762v-13.8971297h-4.5398963l-2.3506724 2.35067249v8.69210651l-3.0821554 3.0821552h-.6275077l2.1787739-2.1792964v-5.21338297c0-3.71227554-3.0199793-6.73225483-6.7322549-6.73225483-3.7122755 0-6.7322548 3.01997929-6.7322548 6.73225483v5.21338297l2.1792965 2.1792964h-4.5832628l-2.9463084 2.9463085v16.1626367l2.3506725 2.3511949h2.5335431zm7.0959063-24.8092867-1.0428855-2.3919489.7168532-7.4715752h.8558349l.7168533 7.4710526-1.0428857 2.3924715zm4.5048895-9.8635241-1.6056049 3.6824938-.3537242-3.6824938zm-9.1283837-9.39903237c0-2.60564652 2.1202553-4.72590181 4.7259018-4.72590181 2.6056466 0 4.7259019 2.12025529 4.7259019 4.72590181v4.38262737l-3.010052 3.010052h-3.4316997l-3.010052-3.010052zm2.281704 9.39903237-.3532016 3.6824938-1.6061275-3.6824938z"/></g><path d="m33.2349243 35.0955032h2.0136679v15.7085948h-2.0136679z"/></g><g fill="#fff" fill-rule="nonzero" transform="translate(12.038118 3.343922)"><path d="m23.659291 9.14928331-1.4185542-1.41855432 1.3448834-1.34488345h2.006353v.83075549zm1.9326822-4.15795771h-2.006353v-1.60299247c0-.0783731-.0067923-.15674633-.0198545-.23302948l1.9781387-.33595966c.0318718.1865281.0480688.37775868.0480688.56846669zm-2.3585097-2.52309339c-.2628113-.29363819-.6379575-.46187919-1.0298234-.46187919v-2.00635302c.9613775 0 1.8814784.41172036 2.5241384 1.12961848z"/><path d="m45.8185196 23.1503879-1.4190767-1.4185543 1.3448835-1.3448834h2.0063531v.8312779zm1.9321599-4.1574351h-2.0063531v-1.603515c0-.0778507-.0062698-.1567462-.0193321-.2330295l1.9781387-.3359597c.0318718.1865283.0475465.3777587.0475465.5684667zm-2.3585099-2.523616c-.2628112-.293638-.6379575-.4618791-1.0298234-.4618791v-2.0063531c.9619001 0 1.8814786.4117204 2.5246609 1.1296187z"/><path d="m1.50006241 23.1503879-1.41855432-1.4185543 1.34488344-1.3448834h2.00635303v.8312779zm1.93268215-4.1574351h-2.00635303v-1.603515c0-.0778507-.0067923-.1567462-.01933201-.2330295l1.97813875-.3359597c.03134927.1865283.04754629.3777587.04754629.5684667zm-2.35850971-2.523616c-.26281138-.293638-.63795753-.4618791-1.02982342-.4618791v-2.0063531c.96137749 0 1.88147854.4117204 2.52466088 1.1296187z"/><path d="m28.4233345 61.6603487h-2.1401099v-2.3616447h2.1401099zm0-3.6992134h-2.1401099v-2.006353h2.1401099zm0-3.3439217h-2.1401099v-2.006353h2.1401099z"/></g></g></svg>