<svg height="60" viewBox="0 0 62 60" width="62" xmlns="http://www.w3.org/2000/svg"><g fill="none" fill-rule="evenodd"><path d="m7.21568624 55.981699c0-1.6016418-1.06178823-3.0091816-2.60173594-3.4492182l-1.11013333-.3172497c-1.54006796-.4400366-2.60185619-1.8475765-2.60185619-3.4492183v-5.4323294c0-1.9811869 1.60609149-3.5872784 3.58727841-3.5872784h5.45289409c1.98118692 0 3.58727842 1.6060915 3.58727842 3.5872784v5.4323294c0 1.6016418-1.0617882 3.0091817-2.6017359 3.4492183l-1.11013337.3172497c-1.54006797.4400366-2.60185619 1.8475764-2.60185619 3.4492182z" fill="#b9ecff"/><g fill="#7fddff"><path d="m11.5619346 51.9642455c.2847791-.1441935.5455059-.3242249.7780915-.5336-.2848994.1440732-.5455059.3241045-.7780915.5336z"/><path d="m42.3921566 46.0601305c0-1.6016419-1.0617882-3.0091817-2.6017359-3.4492183l-1.1101333-.3172497c-1.540068-.4400366-2.6018562-1.8475764-2.6018562-3.4492183v-5.4323293c0-1.981187 1.6060915-3.5872785 3.5872784-3.5872785h5.4528941c1.9811869 0 3.5872784 1.6060915 3.5872784 3.5872785v5.4323293c0 1.6016419-1.0617882 3.0091817-2.6017359 3.4492183l-1.1101334.3172497c-1.5400679.4400366-2.6018562 1.8475764-2.6018562 3.4492183z"/><path d="m46.738405 42.0426769c.2847791-.1441935.5455059-.3242248.7780915-.5336-.2848994.1440732-.5455059.3241046-.7780915.5336z"/></g><path d="m21.6470587 27.1189541c0-1.6016418-1.0617882-3.0091817-2.6017359-3.4492183l-1.1101334-.3172497c-1.5400679-.4400366-2.6017359-1.8475764-2.6017359-3.4492182v-5.4323294c0-1.9811869 1.6060915-3.5872784 3.5872784-3.5872784h5.4528941c1.9811869 0 3.5872784 1.6060915 3.5872784 3.5872784v5.4323294c0 1.6016418-1.0617882 3.0091816-2.6017359 3.4492182l-1.1101333.3172497c-1.5401883.4400366-2.6019765 1.8475765-2.6019765 3.4492183z" fill="#44c9f7"/><path d="m25.993307 23.1015005c.2847791-.1441934.5455059-.3242248.7780915-.5336-.2848993.1440732-.5455058.3241046-.7780915.5336z" fill="#7fddff"/><path d="m54.1176468 17.1973855c0-1.6016418-1.0617883-3.0091817-2.601736-3.4492183l-1.1101333-.3172496c-1.540068-.4400366-2.6018562-1.8475765-2.6018562-3.44921831v-5.43232938c0-1.98118692 1.6060915-3.58727841 3.5872784-3.58727841h5.4528941c1.9811869 0 3.5872784 1.60609149 3.5872784 3.58727841v5.43232938c0 1.60164181-1.0617882 3.00918171-2.6017359 3.44921831l-1.1101333.3172496c-1.540068.4400366-2.6018562 1.8475765-2.6018562 3.4492183z" fill="#1fb5f3"/><path d="m58.4638951 13.179932c.2847791-.1441935.5455059-.3242249.7780915-.5336-.2848993.1440732-.5455059.3241045-.7780915.5336z" fill="#7fddff"/><path d="m6.313725 57.785621h1.803922v1.803922h-1.803922z" fill="#000"/><path d="m8.11764701 55.981699h-1.80392155c0-1.1926326-.80094118-2.2544209-1.94763398-2.582013l-1.11013333-.3172497c-1.91708757-.5476706-3.25595815-2.3226091-3.25595815-4.3164235v-5.4323294c0-2.4753411 2.01389803-4.4892392 4.48923919-4.4892392h5.45289409c2.47534112 0 4.48923922 2.0138981 4.48923922 4.4892392v5.4323294c0 1.9938144-1.3388706 3.7687529-3.2559582 4.3165438l-1.1101333.3172496c-1.14669281.3274719-1.94763399 1.3892602-1.94763399 2.5818928zm-3.62840782-15.3333332c-1.48065881 0-2.68531763 1.2046588-2.68531763 2.6853176v5.4323294c0 1.1926327.80094117 2.2544209 1.94763398 2.5820131l1.11013332.3172496c.96245228.2750379 1.77914771.8593883 2.35399738 1.6254536.5747294-.7661856 1.39142482-1.3504157 2.35399737-1.6254536l1.11013329-.3172496c1.1466928-.3275922 1.947634-1.3893804 1.947634-2.5820131v-5.4323294c0-1.4806588-1.2046588-2.6853176-2.68531762-2.6853176z" fill="#000" fill-rule="nonzero"/><path d="m6.313725 45.60915h1.803922v1.803922h-1.803922z" fill="#fff"/><path d="m41.490196 47.864052h1.803922v1.803922h-1.803922z" fill="#000"/><path d="m43.2941174 46.0601305h-1.8039215c0-1.1926327-.8009412-2.2544209-1.947634-2.5820131l-1.1101334-.3172497c-1.9170875-.5476705-3.2559581-2.3226091-3.2559581-4.3164235v-5.4323293c0-2.4753412 2.013898-4.4892392 4.4892392-4.4892392h5.4528941c2.4753411 0 4.4892392 2.013898 4.4892392 4.4892392v5.4323293c0 1.9938144-1.3388706 3.768753-3.2559582 4.3165438l-1.1101333.3172497c-1.1466928.3274719-1.947634 1.3892601-1.947634 2.5818928zm-3.6284078-15.3333333c-1.4807791 0-2.6853176 1.2046588-2.6853176 2.6853177v5.4323293c0 1.1926327.8009411 2.2544209 1.9476339 2.5820131l1.1101334.3172497c.9624522.2750379 1.7791477.8593882 2.3539973 1.6254535.5747294-.7661856 1.3914249-1.3504156 2.3539974-1.6254535l1.1101333-.3172497c1.1466928-.3275922 1.947634-1.3893804 1.947634-2.5820131v-5.4323293c0-1.4807791-1.2046588-2.6853177-2.6853176-2.6853177z" fill="#000" fill-rule="nonzero"/><path d="m41.490196 35.687582h1.803922v1.803922h-1.803922z" fill="#fff"/><path d="m20.745098 28.922876h1.803922v1.803922h-1.803922z" fill="#000"/><path d="m22.5490195 27.1189541h-1.8039216c0-1.1926327-.8009411-2.2544209-1.9476339-2.5820131l-1.1101334-.3172496c-1.9170875-.5476706-3.2559581-2.3226092-3.2559581-4.3164235v-5.4323294c0-2.4753412 2.013898-4.48923921 4.4892392-4.48923921h5.452894c2.4753412 0 4.4892392 2.01389801 4.4892392 4.48923921v5.4323294c0 1.9938143-1.3388705 3.7687529-3.2559581 4.3165437l-1.1101333.3172497c-1.1466928.3274719-1.947634 1.3892601-1.947634 2.5818928zm-3.6284078-15.3333332c-1.4806589 0-2.6853177 1.2046588-2.6853177 2.6853176v5.4323294c0 1.1926326.8009412 2.2544209 1.947634 2.582013l1.1101333.3172497c.9624523.2750379 1.7791477.8593882 2.3539974 1.6254536.5747294-.7661856 1.3914248-1.3504157 2.3539974-1.6254536l1.1101333-.3172497c1.1466928-.3275921 1.947634-1.3893804 1.947634-2.582013v-5.4323294c0-1.4806588-1.2046588-2.6853176-2.6853177-2.6853176z" fill="#000" fill-rule="nonzero"/><path d="m20.745098 16.746405h1.803922v1.803922h-1.803922z" fill="#fff"/><path d="m53.215686 19.001307h1.803922v1.803922h-1.803922z" fill="#000"/><path d="m55.0196075 17.1973855h-1.8039215c0-1.1926326-.8009412-2.2544209-1.947634-2.582013l-1.1101333-.3172497c-1.9170876-.5476706-3.2559582-2.3226091-3.2559582-4.31642351v-5.43232938c0-2.47534116 2.0138981-4.48923919 4.4892392-4.48923919h5.4528941c2.4753412 0 4.4892392 2.01389803 4.4892392 4.48923919v5.43232938c0 1.99381441-1.3388706 3.76875291-3.2559582 4.31654381l-1.1101333.3172496c-1.1466928.3274719-1.947634 1.3892602-1.947634 2.5818928zm-3.6284078-15.33333322c-1.4806588 0-2.6853176 1.20465881-2.6853176 2.68531763v5.43232938c0 1.19263271.8009412 2.25442091 1.947634 2.58201311l1.1101333.3172496c.9624523.2750379 1.7791477.8593883 2.3539974 1.6254536.5747294-.7661856 1.3914248-1.3504157 2.3539973-1.6254536l1.1101334-.3172496c1.1466928-.3275922 1.9476339-1.3893804 1.9476339-2.58201311v-5.43232938c0-1.48077908-1.2046588-2.68531763-2.6853176-2.68531763z" fill="#000" fill-rule="nonzero"/><path d="m53.215686 6.824837h1.803922v1.803922h-1.803922z" fill="#fff"/><g fill="#000"><path d="m29.7647057 59.5895422h-19.84313713v-1.8039216h19.84313713c.9946824 0 1.8039216-.8092392 1.8039216-1.8039216 0-.9946823-.8092392-1.8039215-1.8039216-1.8039215h-3.1568627c-1.7406641 0-3.1568627-1.4161987-3.1568627-3.1568627 0-1.7406641 1.4161986-3.1568628 3.1568627-3.1568628h13.0784313v1.8039216h-13.0784313c-.7459817 0-1.3529412.6069595-1.3529412 1.3529412s.6069595 1.3529411 1.3529412 1.3529411h3.1568627c1.9893647 0 3.6078431 1.6184784 3.6078431 3.6078431s-1.6184784 3.6078432-3.6078431 3.6078432z"/><path d="m51.4117644 49.6679736h-6.3137254v-1.8039216h6.3137254c1.4920837 0 2.7058824-1.2137987 2.7058824-2.7058823 0-1.4920837-1.2137987-2.7058823-2.7058824-2.7058823h-.9019608v-1.8039216h.9019608c2.486766 0 4.5098039 2.0230379 4.5098039 4.5098039s-2.0230379 4.5098039-4.5098039 4.5098039z"/><path d="m33.3725488 42.4522874h-11.7254901c-2.486766 0-4.5098039-2.0230379-4.5098039-4.5098039v-.4509804c0-1.243383-1.0115189-2.254902-2.2549019-2.254902-1.7406641 0-3.1568628-1.4161987-3.1568628-3.1568627 0-1.7406641 1.4161987-3.1568627 3.1568628-3.1568627h4.0588235v1.8039215h-4.0588235c-.7459817 0-1.3529412.6069595-1.3529412 1.3529412s.6069595 1.3529412 1.3529412 1.3529412c2.2380653 0 4.0588235 1.8207581 4.0588235 4.0588235v.4509804c0 1.4920836 1.2137987 2.7058823 2.7058823 2.7058823h11.7254901z"/><path d="m26.1456783 30.7267972h-1.7927373v-1.8039215h1.7927373c2.6744941 0 5.1889202-1.0414641 7.0801516-2.9326954l3.5278692-3.5278693c2.2318118-2.2318118 5.1992628-3.4610039 8.3555242-3.4610039h6.3025411v1.8039215h-6.3025411c-2.6744941 0-5.1889202 1.0414641-7.0801516 2.9326955l-3.5278693 3.5278692c-2.2318117 2.2318118-5.1992627 3.4610039-8.3555241 3.4610039z"/></g></g></svg>