<svg height="66" viewBox="0 0 35 66" width="35" xmlns="http://www.w3.org/2000/svg"><g fill="none" fill-rule="evenodd"><path d="m33.7579927 64.0566667c0-6.3172814-2.8941966-11.9581503-7.4287616-15.6698136-4.6436554-3.8009544-7.414915-9.4231886-7.414915-15.4240689v-.898605c0-6.0008803 2.7712596-11.6231145 7.414915-15.4240689 4.534565-3.7115339 7.4287616-9.35227334 7.4287616-15.66955474h-32.7185924c0 6.3172814 2.89419666 11.95802084 7.42876163 15.66968414 4.64365537 3.8009544 7.41491507 9.4231886 7.41491507 15.4240689v.898605c0 6.0008803-2.7712597 11.6231145-7.41491507 15.4240689-4.53469437 3.7116633-7.42876163 9.3524028-7.42876163 15.6698136v.9705555h32.7887313z" fill="#b9ecff"/><path d="m29.4606316 51.6820833-2.8627507-1.0678699c-3.7931899-1.2644398-7.9105454-1.1527612-11.6297143.3153659l-3.9479612 1.6095693 14.3156945 1.0841753z" fill="#ffec76"/><path d="m18.9141867 32.9629136h-3.0309803l-.0010353-.7025528c-.0060821-4.398946-1.4630801-8.6731432-4.1451781-12.1598964l-.716917-.9319922.8885113-.5749571c2.0421783-1.321379 4.5797281-1.6267805 6.8770978-.8276898 1.2720748.442444 2.6361583.5519226 3.9625842.3178246l2.1022234-.371011-4.8527778 7.5218055z" fill="#fef0bd"/><path d="m29.5582047 51.9247222-1.8406909.7733387c-3.3969445 1.0065308-7.0067641 1.0489764-10.4264842.1228076-4.1552719-1.1254562-8.56884093-.8150078-12.52573123.8807468l-1.65473252.6494958s-2.73386089 3.8822222-2.21623126 10.4334722h32.78873131s-.4852778-9.4629166-4.1248612-12.8598611z" fill="#fef0bd"/><path d="m1.071882 61.145h32.513611v3.639583h-32.513611z" fill="#fff"/><path d="m1.071882 61.145h4.3675v3.639583h-4.3675z" fill="#b9ecff"/><g fill="#fff"><path d="m1.071882.970556h32.513611v3.639583h-32.513611z"/><path d="m8.108409 56.292222h9.705556v1.941111h-9.705556z"/><path d="m19.755076 56.292222h1.941111v1.941111h-1.941111z"/></g><path d="m13.931743 46.586667h1.941111v1.941111h-1.941111z" fill="#000"/><path d="m15.872854 44.645556h1.941111v1.941111h-1.941111z" fill="#000"/><path d="m17.813965 7.764444h6.793889v1.941111h-6.793889z" fill="#fff"/><path d="m26.548965 7.764444h1.941111v1.941111h-1.941111z" fill="#fff"/><g fill="#000"><path d="m34.7286777 64.0213384c-.0103526-6.3731854-2.8464453-12.3435255-7.784632-16.3854365-4.4861666-3.6719352-7.0591741-9.0200845-7.0591741-14.6729883v-.898605c0-5.6529038 2.5730075-11.0009237 7.0590447-14.6729883 4.9472452-4.0494166 7.7847614-10.03450919 7.7847614-16.42076474v-.97055556h-34.65983296v.97055556c0 6.38625555 2.83751622 12.37134814 7.78476141 16.42076474 4.48603715 3.6719352 7.05904465 9.0200845 7.05904465 14.6729883v.898605c0 5.6529038-2.5730075 11.0010531-7.05904465 14.6729883-4.94724519 4.0494166-7.78476141 10.0345092-7.78476141 16.4207648v1.9411111h34.80243996zm-7.1611471-12.009525-.0313166.0131996c-3.211633.9415683-6.6153067.9768965-9.8464802.1017142-.6608837-.1789705-1.3292729-.3227421-2.0021914-.4322208 3.4006972-1.2476168 7.1439359-1.3085677 10.5873376-.1647356zm-16.3529553-34.125251c-.6588131-.7060468-1.37003619-1.3739184-2.13159878-1.9972739-3.21020956-2.6277468-5.44171089-6.15241635-6.45561793-10.06595517h5.23828245v-1.94111111h-5.63595141c-.09705556-.64004903-.16318274-1.2876037-.195664-1.94111111h30.72934177c-.0324813.65350741-.0986084 1.30106208-.195664 1.94111111h-22.518183v1.94111111h22.1206435c-1.0139071 3.91353882-3.2454084 7.43820837-6.455618 10.06595517-.3537998.2896138-.6955648.5897096-1.0273654.8978286l-.0053057-.0301519-2.1022233.371011c-1.1605256.2047225-2.3620734.108314-3.4749771-.2787435-2.598242-.9035226-5.4132413-.5648634-7.7232929.9296628zm1.2690985 1.4927145c1.7946219-1.1412439 3.9713839-1.3965648 5.9832809-.6968589 1.303909.4537024 2.7029325.594627 4.0697335.4144919-2.9396186 3.663912-4.5757165 8.1797128-4.5921512 12.8953188h-1.0915515c-.0160465-4.5949983-1.5699707-9.0006734-4.3693117-12.6129518zm-3.40069728 29.7586568c4.68144238-3.8317533 7.46836028-9.3293682 7.74606858-15.2045939h1.1394322c.2775789 5.8750963 3.0646263 11.3727112 7.7460686 15.2045939.1208665.0988673.2395331.1996756.3575527.301131-3.770026-1.0559644-7.8070195-.8544771-11.4702844.5917801l-3.5589625 1.4509159c-1.77637548.1238429-3.53618681.4826896-5.22547111 1.0711051.93393326-1.2521461 2.02652-2.4006368 3.26559593-3.4149321zm-4.97623245 6.1644513 1.1581963-.4546083.02769319-.0113878c1.93373488-.828725 3.99661837-1.307403 6.08085404-1.4303401l.0129408.0317048.0934321-.0380457c1.9118651-.1015849 3.8402942.0964085 5.7024668.6007091 3.5954554.9737908 7.3839867.9291452 10.95589-.1291486l1.3708126-.5714631c1.4000588 2.0768595 2.3785082 4.4091692 2.8831971 6.8746391h-29.98939026c.34784711-1.7008015.92138074-3.3383228 1.70390733-4.8720594zm-2.09678822 8.7542817c0-.6524722.03455178-1.2998974.09886726-1.9411111h30.57884099c.0643155.6413431.0999025 1.2886389.0999025 1.9411111z" fill-rule="nonzero"/><path d="m16.358132 40.763333h1.941111v1.941111h-1.941111z"/></g></g></svg>