<svg version="1.1" id="Слой_1" xmlns="http://www.w3.org/2000/svg" x="0" y="0" viewBox="0 0 73 64.6" xml:space="preserve"><style>.st1{fill:none}.st2{fill:#00c0b0}</style><circle cx="33.8" cy="33.1" r="31.5" opacity=".2" fill="#00c0b0" stroke="#00c0b0" stroke-width=".5" stroke-miterlimit="10"/><path class="st1" d="M52 9.3c-.1-.1-.2-.2-.4-.3h-.5l-16.4 9.1h22.1L52 9.3zm10.8 8.9c-.3-1.1-1.3-1.9-2.4-1.9h-1.6l1 1.9h3zM52.7 35.5v.4c0 2 1.6 3.6 3.6 3.6h8.9v-7.6h-8.9c-2 0-3.6 1.6-3.6 3.6zm6.8.2c0 1.3-1.1 2.4-2.4 2.4-1.3 0-2.4-1.1-2.4-2.4 0-1.3 1.1-2.4 2.4-2.4 1.4 0 2.4 1.1 2.4 2.4zm3.4 6.3h-6.4l6.4 5.5z"/><path class="st1" d="M50.2 35.9v-.4c0-3.4 2.8-6.1 6.1-6.1h6.6v-8.6H31.6l18.6 16v-.9zM29.6 18.2l3.3-1.9h-6.4l2.1 1.9z"/><circle class="st2" cx="57.1" cy="35.7" r="2.4"/><path class="st2" d="M60.4 53.7H23.5c-1.4 0-2.5-1.1-2.5-2.5V18.4l-2-1.8c-.3.7-.5 1.4-.5 2.2v32.4c0 2.8 2.3 5 5 5h36.9c1.3 0 2.4-.5 3.3-1.3l-2-1.7c-.3.3-.8.5-1.3.5zm5-4V42h2.4V29.3h-2.4V18.8c0-2.8-2.3-5-5-5h-3l-3.2-5.7c-.6-1-1.6-1.6-2.8-1.6-.5 0-1.1.1-1.5.4l-12.5 6.9H23.5l-2.7-2.3-1.6 1.9 1.5 1.3 2.1 1.8 2 1.7 3 2.5 35.1 30.1 2.3 2 2 1.8-.1.1.1.1 1.7-2-3.5-3.1zm-5-33.4c1.1 0 2.1.8 2.4 1.9h-3l-1-1.9h1.6zm-9.2-7.2c.1-.1.3-.1.4-.1.2 0 .3.1.4.3l4.9 8.9H34.8l16.4-9.1zm-22.6 9.1l-2.2-1.9h6.4l-3.3 1.9h-.9zm3 2.5h31.3v8.6h-6.6c-3.4 0-6.1 2.8-6.1 6.1v.4c0 .3 0 .6.1.8L31.6 20.7zm31.3 26.8L56.5 42h6.4v5.5zm2.4-8h-8.9c-2 0-3.6-1.6-3.6-3.6v-.4c0-2 1.6-3.6 3.6-3.6h8.9v7.6z"/></svg>